# xmcd
#
# Track frame offsets: 
#        150
#        17372
#        43467
#        68257
#        85382
#        105925
#        130282
#        155392
#        173525
#        192857
#        214575
#        236915
#
# Disc length: 3396 seconds
#
# Revision: 41
# Processed by: cddbd v1.5.2PL0 Copyright (c) Steve Scherf et al.
# Submitted via: ExactAudioCopy v1.0b3
#
DISCID=920d420c
DTITLE=Kenny Wayne Shepherd Band - Trouble Is...
DYEAR=1997
DGENRE=Blues
TTITLE0=Slow Ride
TTITLE1=True Lies
TTITLE2=Blue on Black
TTITLE3=Everything Is Broken
TTITLE4=I Don't Live Today
TTITLE5=(Long) Gone
TTITLE6=Somehow, Somewhere, Someway
TTITLE7=I Found Love (When I Found You)
TTITLE8=King's Highway
TTITLE9=Nothing to Do with Love
TTITLE10=Chase the Rainbow
TTITLE11=Trouble Is...
EXTD=Location:  - UPC: 075992468923 - Catalogue number: 9 24689-2 - Labe
EXTD=l: Revolution - ASIN: B000002L5I - Release Date: 1997 10 07 - Discog
EXTD=s: a883484,m306652,r2326872 - MUSICBRAINZ_ALBUMID: da6c447c-cbf1-4
EXTD=00a-a9a7-adb55934b1b0 - AMG: mn0002722429,mw0000595748;
EXTT0=
EXTT1=
EXTT2=
EXTT3=
EXTT4=
EXTT5=
EXTT6=
EXTT7=
EXTT8=
EXTT9=
EXTT10=
EXTT11=
PLAYORDER=
